<?xml version="1.0" encoding="UTF-8"?>
<!DOCTYPE svg PUBLIC "-//W3C//DTD SVG 1.1//EN" "http://www.w3.org/Graphics/SVG/1.1/DTD/svg11.dtd">
<!-- Creator: CorelDRAW X7 -->
<svg xmlns="http://www.w3.org/2000/svg" xml:space="preserve" width="10.1217cm" height="6.61116cm" version="1.1" style="shape-rendering:geometricPrecision; text-rendering:geometricPrecision; image-rendering:optimizeQuality; fill-rule:evenodd; clip-rule:evenodd"
viewBox="0 0 10122 6611"
 xmlns:xlink="http://www.w3.org/1999/xlink">
 <defs>
  <style type="text/css">
   <![CDATA[
    .fil7 {fill:none}
    .fil16 {fill:#292D34}
    .fil9 {fill:black}
    .fil6 {fill:#333333}
    .fil21 {fill:#3CADD4}
    .fil4 {fill:#4D4D4D}
    .fil5 {fill:#666666}
    .fil10 {fill:#B3B3B3}
    .fil2 {fill:#CCCCCC}
    .fil3 {fill:#E6E6E6}
    .fil22 {fill:white}
    .fil8 {fill:white}
    .fil12 {fill:#FEFEFE;fill-rule:nonzero}
    .fil18 {fill:#EA5640;fill-rule:nonzero}
    .fil17 {fill:#DA452E;fill-rule:nonzero}
    .fil20 {fill:#D44028;fill-rule:nonzero}
    .fil19 {fill:#C43428;fill-rule:nonzero}
    .fil14 {fill:#30353A;fill-rule:nonzero}
    .fil15 {fill:#283B48;fill-rule:nonzero}
    .fil0 {fill:black;fill-rule:nonzero}
    .fil28 {fill:#00A2B2;fill-rule:nonzero}
    .fil24 {fill:#155C76;fill-rule:nonzero}
    .fil1 {fill:#333333;fill-rule:nonzero}
    .fil11 {fill:gray;fill-rule:nonzero}
    .fil26 {fill:#B0CB1F;fill-rule:nonzero}
    .fil13 {fill:#CCCCCC;fill-rule:nonzero}
    .fil25 {fill:#EA60FC;fill-rule:nonzero}
    .fil23 {fill:#EFEFF0;fill-rule:nonzero}
    .fil27 {fill:#FF6600;fill-rule:nonzero}
   ]]>
  </style>
   <clipPath id="id0">
    <path d="M1806 1155c18,53 37,105 56,157 13,-49 27,-99 40,-149 34,60 69,150 157,169 234,48 421,281 587,624 82,170 192,190 349,172 -58,90 -163,120 -350,44 61,95 146,160 265,181 -155,54 -263,-41 -393,-53 -219,-20 -382,293 -717,277l-8 0c-333,-16 -495,-296 -713,-277 -131,12 -239,107 -394,53 120,-21 204,-86 265,-181 -187,76 -291,46 -350,-44 157,18 267,-2 349,-172 166,-343 353,-576 587,-624 88,-19 123,-109 157,-169 14,50 27,100 40,149 19,-52 54,-104 73,-157z"/>
   </clipPath>
   <clipPath id="id1" style="clip-rule:nonzero">
    <path d="M1825 4973l107 0 0 -58 -107 0 0 58 0 0z"/>
   </clipPath>
   <clipPath id="id2" style="clip-rule:nonzero">
    <path d="M1825 4915l107 0 0 -274 -107 0 0 274 0 0z"/>
   </clipPath>
   <clipPath id="id3" style="clip-rule:nonzero">
    <path d="M1825 4641l107 0 0 -118 -107 0 0 118 0 0z"/>
   </clipPath>
 </defs>
 <g id="Capa_x0020_1">
  <metadata id="CorelCorpID_0Corel-Layer"/>
  <g>
   <polygon class="fil0" points="7115,5834 6850,5834 6849,3201 7115,3201 "/>
  </g>
  <g>
   <polygon class="fil1" points="5153,6277 6865,3137 7098,3265 5386,6406 "/>
  </g>
  <g>
   <polygon class="fil1" points="8810,6277 8577,6406 6865,3265 7098,3137 "/>
  </g>
  <ellipse class="fil2" cx="1670" cy="3114" rx="670" ry="1189"/>
  <ellipse class="fil2" cx="1883" cy="3114" rx="670" ry="1189"/>
  <ellipse class="fil3" cx="1784" cy="3114" rx="670" ry="1189"/>
  <path class="fil4" d="M1241 2317c-55,111 -20,292 86,418 9,-47 31,-71 64,-73 -16,76 17,139 92,193 -15,-47 -10,-76 12,-88 5,69 34,132 97,185 -7,-36 3,-58 20,-73 0,79 25,156 72,229 -6,-51 1,-84 16,-108 34,45 79,104 91,179 12,-75 42,-134 76,-179 15,24 22,57 16,108 48,-73 73,-150 72,-229 17,15 27,37 20,73 63,-53 92,-116 97,-185 22,12 27,41 12,88 75,-54 108,-117 92,-193 34,2 55,26 64,73 106,-126 141,-307 87,-418 11,28 -532,287 -536,248l0 12c-23,10 -561,-232 -550,-260z"/>
  <path class="fil3" d="M2790 1111c86,126 -18,470 -171,788l-6 -10c-115,-223 -241,-394 -385,-487 198,-216 414,-350 562,-291z"/>
  <path class="fil5" d="M2690 1264c61,89 -10,328 -116,552 -84,-151 -174,-273 -272,-358 138,-146 286,-234 388,-194z"/>
  <path class="fil3" d="M1806 1155c18,53 37,105 56,157 13,-49 27,-99 40,-149 34,60 69,150 157,169 234,48 421,281 587,624 82,170 192,190 349,172 -58,90 -163,120 -350,44 61,95 146,160 265,181 -155,54 -263,-41 -393,-53 -219,-20 -382,293 -717,277l-8 0c-333,-16 -495,-296 -713,-277 -131,12 -239,107 -394,53 120,-21 204,-86 265,-181 -187,76 -291,46 -350,-44 157,18 267,-2 349,-172 166,-343 353,-576 587,-624 88,-19 123,-109 157,-169 14,50 27,100 40,149 19,-52 54,-104 73,-157z"/>
  <g style="clip-path:url(#id0)">
   <g>
    <path id="1" class="fil2" d="M1813 1944c-11,53 -31,102 -55,140 7,21 23,2 32,32l51 0c155,4 159,57 80,161l-79 98c-7,6 -14,13 -22,19 -2,1 -4,2 -6,3 -2,13 -30,26 -22,65 3,12 3,22 3,30 -2,26 -19,29 -22,36 -13,27 -32,29 -51,28 -17,-1 -34,-4 -49,3 34,9 71,15 109,17 3,0 6,1 9,1 0,0 0,0 1,0l8 0c58,3 110,-4 158,-17 125,-34 223,-110 315,-171 22,-14 44,-28 66,-41 8,-4 16,-8 24,-13 28,-14 56,-24 85,-30 22,-5 45,-7 69,-5 130,12 238,107 393,53 -119,-21 -204,-86 -265,-181 187,76 292,46 350,-44 -157,18 -267,-2 -349,-172 -11,-23 -22,-45 -33,-67 -13,-25 -26,-49 -39,-73 -23,-40 -45,-78 -69,-114l-2 7 -134 -177 5 -3c-23,-26 -47,-50 -72,-71 -24,-21 -49,-40 -74,-56 -54,-34 -110,-58 -169,-70 -88,-19 -123,-109 -157,-169l-27 101c13,5 8,44 7,44 -142,18 -32,28 -57,158 -11,57 28,65 -27,88 -1,3 -6,18 -9,20 -26,16 -35,92 -16,92 17,-1 19,52 26,65 27,55 30,126 18,195 0,1 -1,2 -1,3 -1,5 -2,10 -3,15zm392 82c-20,11 -43,19 -67,23 -14,3 -28,4 -43,4 -31,0 -61,-6 -88,-16 -26,-11 -50,-26 -71,-45 -18,-16 -34,-35 -46,-57 -2,-3 -4,-7 -6,-10 -17,-33 -26,-70 -26,-109 0,-131 106,-237 237,-237 131,0 237,106 237,237 0,91 -51,170 -127,210z"/>
    <path class="fil4" d="M807 1554c330,-18 659,-37 988,0 331,-43 662,-22 993,0 0,175 0,350 0,525 -331,39 -662,68 -993,0 -331,72 -657,42 -988,0 0,-175 0,-350 0,-525z"/>
    <path class="fil6" d="M1815 1944c-9,51 -25,100 -44,140 8,-2 16,-3 24,-5 102,21 203,33 305,38 39,2 78,3 117,3 32,0 65,0 98,-1 143,-5 285,-18 428,-35 15,-2 30,-3 45,-5l0 -525c-9,-1 -19,-1 -28,-2 -27,-2 -54,-4 -81,-5 -72,-5 -145,-9 -217,-12l18 -73 -106 67 -3 2c-190,-5 -380,-2 -570,22 -2,0 -4,1 -6,1 -2,0 -4,-1 -7,-1 -17,14 -27,57 -25,82 1,10 4,17 10,17 17,0 19,57 26,72 13,28 20,61 23,95 1,11 1,22 1,33 1,25 -1,49 -5,74 0,1 0,2 0,3 -1,5 -2,10 -3,15z"/>
   </g>
  </g>
  <path class="fil7" d="M1806 1155c18,53 37,105 56,157 13,-49 27,-99 40,-149 34,60 69,150 157,169 234,48 421,281 587,624 82,170 192,190 349,172 -58,90 -163,120 -350,44 61,95 146,160 265,181 -155,54 -263,-41 -393,-53 -219,-20 -382,293 -717,277l-8 0c-333,-16 -495,-296 -713,-277 -131,12 -239,107 -394,53 120,-21 204,-86 265,-181 -187,76 -291,46 -350,-44 157,18 267,-2 349,-172 166,-343 353,-576 587,-624 88,-19 123,-109 157,-169 14,50 27,100 40,149 19,-52 54,-104 73,-157z"/>
  <circle class="fil8" cx="2095" cy="1816" r="237"/>
  <path class="fil3" d="M804 1111c-87,126 18,470 170,788l6 -10c115,-223 244,-392 388,-485 -198,-216 -417,-352 -564,-293z"/>
  <circle class="fil6" cx="1518" cy="1836" r="237"/>
  <path class="fil5" d="M905 1266c-60,89 11,328 117,552 83,-151 173,-273 272,-358 -138,-146 -286,-235 -389,-194z"/>
  <circle class="fil8" cx="1498" cy="1816" r="237"/>
  <path class="fil9" d="M1793 2402c20,1 36,-15 49,-27l79 -98c79,-104 75,-157 -80,-161l-51 0 -52 0c-155,4 -159,57 -80,161l80 98c12,12 34,28 55,27z"/>
  <circle class="fil9" cx="2095" cy="1816" r="74"/>
  <circle class="fil9" cx="1498" cy="1816" r="74"/>
  <polygon class="fil4" points="1086,1716 1045,1574 1099,1598 1086,1548 1134,1568 1109,1469 1220,1540 "/>
  <polygon class="fil6" points="2503,1709 2544,1567 2490,1591 2504,1540 2456,1561 2480,1462 2369,1532 "/>
  <path class="fil6" d="M1865 2755c-101,50 -14,128 -73,168 -79,53 -56,25 -69,108 29,40 59,89 68,148 12,-75 42,-134 76,-179 15,24 22,57 16,108 48,-73 73,-150 72,-229 17,15 27,37 20,73 63,-53 92,-116 97,-185 22,12 27,41 12,88 75,-54 108,-117 92,-193 34,2 55,26 64,73 39,-45 67,-98 86,-152 29,-82 35,-167 13,-235 -22,13 -44,27 -66,41 -92,61 -190,137 -315,171 0,0 -35,33 -35,36 -6,42 -17,138 -58,159z"/>
  <path class="fil6" d="M971 1473c0,-122 -10,-129 34,-213 -37,-8 -71,-8 -102,4 -60,89 10,328 116,552 0,0 1,0 1,0 -11,-39 -23,-99 -23,-100 -19,-26 -26,-200 -26,-243z"/>
  <path class="fil6" d="M2527 1736c16,26 31,52 47,80 57,-122 105,-248 126,-353 -9,27 -18,53 -26,73 -27,71 -67,167 -147,200z"/>
  <path class="fil2" d="M785 2166c-78,9 -101,-6 -168,-16 60,71 159,90 322,26 -31,-28 -115,-15 -154,-10z"/>
  <path class="fil2" d="M1130 2260c-67,-25 -147,17 -206,58 -61,43 -153,45 -229,38 150,47 256,-44 384,-56 9,-1 19,-1 29,-1 29,1 58,7 86,17 -9,-13 -21,-27 -25,-31 -12,-11 -25,-19 -39,-25z"/>
  <path class="fil10" d="M2739 2081c-1,7 31,46 41,49 21,5 23,14 57,17 22,1 23,7 59,7 20,0 63,-1 84,-6 5,-6 10,-13 15,-20 -104,12 -188,7 -256,-47z"/>
  <path class="fil10" d="M2768 2299c-49,-32 -89,-75 -123,-127 -9,17 15,68 28,80 -6,19 70,46 91,47 2,0 3,0 4,0z"/>
  <path class="fil2" d="M1894 1385c0,-45 15,-25 15,-63 0,-8 -4,-20 -13,-20 -32,-1 -13,1 -30,8 -3,1 0,-1 -4,2l-56 -157c7,50 12,79 -2,129 -7,27 -1,45 4,51 1,0 2,0 3,0 20,2 30,9 60,26 0,0 22,24 23,24z"/>
  <g>
   <path class="fil0" d="M1745 2507c-9,-1 -16,-10 -15,-19 2,-10 10,-16 20,-15l-5 34zm283 -133l24 23 -12 13 -12 11 -13 11 -13 9 -13 9 -13 8 -13 7 -13 7 -13 6 -13 5 -13 5 -13 4 -12 3 -12 4 -12 2 -12 2 -11 2 -10 1 -11 2 -9 0 -10 1 -8 0 -8 0 -8 0 -6 0 -6 0 -5 0 -5 -1 -3 0 -3 0 -1 -1 -1 0 5 -34 0 0 1 0 2 1 3 0 4 0 5 0 5 1 6 0 7 0 7 0 8 -1 8 0 9 -1 9 -1 10 -1 10 -2 11 -2 11 -2 11 -3 11 -3 12 -4 11 -4 12 -5 12 -5 12 -6 11 -7 12 -7 12 -8 12 -9 11 -9 11 -10 12 -11zm0 0c6,-7 17,-7 24,-1 7,7 7,18 0,24l-24 -23z"/>
  </g>
  <ellipse class="fil6" transform="matrix(1.28671E-014 0.485834 -0.618101 1.63701E-014 1000.38 3155.94)" rx="262" ry="286"/>
  <ellipse class="fil6" cx="2733" cy="3133" rx="127" ry="177"/>
  <circle class="fil8" cx="1467" cy="1789" r="17"/>
  <circle class="fil8" cx="2067" cy="1789" r="17"/>
  <polygon class="fil11" points="3933,4641 10122,4641 10122,0 3933,0 "/>
  <polygon class="fil6" points="3933,4641 10122,0 10122,4641 "/>
  <polygon class="fil12" points="4090,4523 7027,4523 7027,4524 7337,4524 7337,4523 8260,4523 8260,4524 8574,4524 8574,4523 9187,4523 9187,4524 9965,4524 9965,4524 9965,118 9965,117 9965,118 9187,118 9187,118 8574,118 8574,118 7027,118 7027,118 6920,118 6920,116 4867,116 4867,117 4090,117 4090,4523 4090,4524 4090,4524 4090,4524 "/>
  <g>
   <g>
    <polygon class="fil5" points="2223,2533 3388,2440 3195,3251 3186,3267 3201,3275 2138,3444 2094,3358 "/>
    <path id="1" class="fil13" d="M3388 2444l-1165 94 -1 -9 1165 -94 5 6 -4 3zm-1 -9l7 -1 -2 7 -5 -6zm-196 815l192 -812 9 3 -192 811 -1 1 -8 -3zm9 2l0 1 -1 0 1 -1zm-18 13l9 -16 8 4 -9 16 -6 2 -2 -6zm2 6l-4 -2 2 -4 2 6zm14 8l-14 -8 5 -8 14 8 -1 9 -4 -1zm5 -8l12 6 -13 3 1 -9zm-1066 168l1063 -169 2 10 -1064 168 -4 -2 3 -7zm1 9l-3 1 -1 -3 4 2zm-39 -92l43 86 -8 4 -44 -86 0 -2 9 -2zm-9 4l-1 -1 1 -1 0 2zm137 -826l-128 825 -9 -1 128 -825 4 -4 5 5zm-9 -1l1 -4 3 0 -4 4z"/>
   </g>
   <g>
    <polygon class="fil5" points="3201,3275 3183,3347 2147,3523 2138,3444 "/>
    <path id="1" class="fil13" d="M3178 3346l18 -72 9 2 -18 72 -3 4 -6 -6zm9 2l0 3 -3 1 3 -4zm-1040 171l1035 -177 2 10 -1036 176 -5 -4 4 -5zm1 9l-5 1 0 -5 5 4zm-6 -85l10 80 -9 1 -10 -80 4 -5 5 4zm-9 1l-1 -4 5 -1 -4 5zm1069 -164l-1064 168 -1 -9 1063 -169 5 6 -3 4zm-2 -10l7 -1 -2 7 -5 -6z"/>
   </g>
  </g>
  <path class="fil14" d="M1754 6611c969,0 1755,-67 1755,-150 0,-83 -786,-150 -1755,-150 -20,0 -40,0 -60,0l0 0c-941,3 -1694,69 -1694,150 0,82 772,149 1730,150 0,-2 0,-3 1,-5 2,-4 5,-6 9,-6 0,0 1,0 1,0 4,0 7,1 9,5 2,2 2,4 2,6 1,0 2,0 2,0z"/>
  <g style="clip-path:url(#id1)">
   <image transform="matrix(-3.21916 -0 -0 1.83398 1935.17 4911.65)" x="0" y="0" width="35.28" height="35.28" xlink:href="conferencia_Images\conferencia_ImgID1.png"/>
  </g>
  <g style="clip-path:url(#id2)">
   <image transform="matrix(-3.21916 -0 -0 7.95647 1935.17 4637.01)" x="0" y="0" width="35.28" height="35.28" xlink:href="conferencia_Images\conferencia_ImgID2.png"/>
  </g>
  <g style="clip-path:url(#id3)">
   <image transform="matrix(-3.21916 -0 -0 3.49619 1935.17 4519.72)" x="0" y="0" width="35.28" height="35.28" xlink:href="conferencia_Images\conferencia_ImgID3.png"/>
  </g>
  <g>
   <g>
    <path class="fil15" d="M599 3306c1,18 -13,33 -31,34 -18,1 -33,-13 -34,-31l-22 -418c-3,-43 15,-86 43,-121 30,-38 72,-69 114,-84l413 -144c17,-6 35,3 41,20 6,17 -3,35 -20,41l-413 145c-30,11 -61,34 -83,62 -19,24 -31,51 -30,77l22 419z"/>
    <path class="fil16" d="M813 2599l249 -87c35,-12 73,6 86,41 12,35 -7,74 -42,86l-249 87c-35,13 -73,-6 -86,-41 -12,-35 7,-73 42,-86z"/>
   </g>
   <path class="fil16" d="M567 3473c91,0 165,-75 165,-166 0,-91 -74,-165 -165,-165 -92,0 -166,74 -166,165 0,91 74,166 166,166z"/>
  </g>
  <polygon class="fil17" points="3405,3310 3346,4043 1766,4043 1766,3310 "/>
  <polygon class="fil18" points="104,3310 1773,3310 1773,4043 163,4043 "/>
  <polygon class="fil19" points="3405,3314 1766,3314 1766,3225 3405,3225 "/>
  <polygon class="fil20" points="1773,3314 104,3314 104,3225 1773,3225 "/>
  <polygon class="fil19" points="2700,3677 2602,6283 1764,6283 1764,3677 "/>
  <polygon class="fil20" points="809,3677 1770,3677 1770,6283 917,6283 "/>
  <polygon class="fil17" points="2959,6437 1764,6437 1764,6224 2959,6224 "/>
  <polygon class="fil18" points="1770,6437 550,6437 550,6224 1770,6224 "/>
  <g id="layer1" inkscape:label="Capa 1" inkscape:groupmode="layer">
   <path class="fil21" d="M2480 2904l196 -18c4,-1 6,2 6,5l-14 89c0,4 -4,7 -7,7l-196 19c-4,0 -6,-2 -6,-6l14 -89c0,-3 4,-6 7,-7z"/>
   <g id="g3819">
    <g>
     <path id="path2993" class="fil22" d="M2467 2995l13 -85 29 -3c6,-1 12,0 16,2 5,2 8,4 11,8 3,3 5,8 5,13 1,5 1,10 0,16 -1,7 -2,13 -5,18 -3,6 -6,10 -10,14 -4,4 -8,8 -13,10 -5,3 -11,4 -17,5l-29 2 0 0zm59 -47c1,-5 1,-8 0,-12 0,-3 -1,-6 -3,-8 -2,-2 -4,-4 -7,-5 -2,-1 -6,-2 -9,-1l-14 1 -8 56 13 -1c4,0 8,-1 11,-3 3,-2 6,-4 8,-7 2,-2 4,-5 6,-9 1,-4 2,-7 3,-11l0 0zm0 0l0 0 0 0z" inkscape:connector-curvature="0"/>
    </g>
    <g>
     <path id="path2995" class="fil22" d="M2573 2987c-5,0 -9,0 -13,-2 -3,-1 -6,-3 -8,-6 -2,-3 -4,-6 -5,-10 -1,-3 -1,-8 0,-12 1,-4 2,-9 4,-13 2,-4 4,-8 8,-11 3,-3 6,-6 10,-8 4,-2 9,-3 14,-4 4,0 8,0 12,2 3,1 6,3 8,6 3,3 4,6 5,10 1,3 1,8 0,12 0,1 0,2 -1,3 0,1 0,2 0,2l-45 4c0,3 0,5 1,7 0,2 1,3 2,5 1,1 3,2 5,2 1,1 3,1 5,1 3,0 6,-1 9,-3 3,-2 5,-4 6,-7l12 3c-3,5 -7,9 -12,13 -5,3 -11,5 -17,6l0 0zm20 -40c1,-5 0,-8 -3,-11 -2,-2 -5,-3 -9,-3 -2,0 -4,1 -6,2 -2,1 -4,2 -5,3 -2,2 -3,3 -4,5 -1,2 -2,5 -3,7l30 -3 0 0zm0 0l0 0 0 0z" inkscape:connector-curvature="0"/>
    </g>
    <g>
     <path id="path2997" class="fil22" d="M2626 2980l-12 -61 16 -1 7 49 22 -52 14 -1 -31 65 -16 1 0 0zm0 0l0 0 0 0z" inkscape:connector-curvature="0"/>
    </g>
   </g>
   <g id="g3824">
    <polygon id="path2994" class="fil22" points="2751,2888 2738,2974 2724,2975 2730,2938 2696,2942 2691,2978 2676,2980 2689,2894 2703,2892 2698,2927 2732,2924 2737,2889 " inkscape:connector-curvature="0"/>
    <path id="path2996" class="fil22" d="M2769 2972c-6,1 -10,-1 -12,-5 -3,-4 -3,-10 -2,-18l6 -40 14 -1 -5 36c-2,10 0,14 6,14 3,-1 6,-2 9,-4 3,-2 5,-5 7,-9l6 -39 14 -2 -7 45c0,2 0,3 1,4 0,0 1,1 2,1l-2 13c-1,1 -3,1 -4,1 -1,1 -2,1 -3,1 -2,0 -4,0 -5,-2 -1,-1 -2,-3 -2,-5l0 -5c-3,5 -6,8 -10,11 -4,2 -9,4 -13,4z" inkscape:connector-curvature="0"/>
    <g>
     <path id="path2998" class="fil22" d="M2867 2962l-14 1 6 -36c0,-5 0,-8 -1,-11 -1,-2 -3,-3 -6,-2 -1,0 -3,0 -4,1 -2,1 -3,2 -5,3 -1,1 -3,3 -4,5 -1,1 -2,3 -3,5l-6 37 -13 1 9 -63 13 -1 -2 12c2,-5 6,-8 10,-11 4,-2 9,-4 13,-4 4,-1 6,0 8,1 2,1 4,3 4,5 1,3 2,5 2,8 0,3 -1,6 -1,9l-6 40 0 0zm0 0l0 0 0 0z" inkscape:connector-curvature="0"/>
    </g>
    <g>
     <path id="path3000" class="fil22" d="M2912 2954c-2,1 -4,2 -7,4 -3,1 -6,2 -9,2 -2,0 -4,0 -6,0 -1,-1 -2,-2 -4,-3 -1,-1 -1,-2 -2,-4 0,-2 0,-5 0,-7l6 -37 -8 1 2 -12 7 -1 3 -21 14 -1 -3 21 12 -2 -2 13 -12 1 -4 31c-1,2 0,4 1,5 1,0 2,1 3,1 2,-1 3,-1 5,-2 1,0 2,-1 3,-1l1 12 0 0zm0 0l0 0 0 0z" inkscape:connector-curvature="0"/>
    </g>
    <g>
     <path id="path3002" class="fil22" d="M2944 2956c-5,0 -8,-1 -12,-2 -3,-1 -6,-3 -8,-6 -2,-3 -3,-6 -4,-10 -1,-4 -1,-8 0,-12 1,-5 2,-9 4,-13 2,-4 4,-8 7,-11 3,-3 6,-6 10,-8 4,-2 8,-4 13,-4 4,-1 8,0 11,1 3,2 6,4 8,7 2,2 3,6 4,10 1,3 1,7 0,12 0,1 0,2 0,3 -1,1 -1,2 -1,2l-42 4c0,3 0,5 0,7 1,2 2,3 3,4 1,2 2,2 4,3 1,1 3,1 5,1 3,-1 5,-2 8,-3 3,-2 5,-5 6,-7l11 3c-2,5 -6,9 -11,12 -5,4 -10,6 -16,7l0 0zm19 -40c1,-5 0,-8 -2,-11 -3,-3 -6,-4 -9,-3 -2,0 -4,0 -6,1 -2,1 -3,2 -5,4 -1,1 -2,3 -3,5 -1,2 -2,4 -3,7l28 -3 0 0zm0 0l0 0 0 0z" inkscape:connector-curvature="0"/>
    </g>
    <g>
     <path id="path3004" class="fil22" d="M3021 2898c-5,1 -9,2 -12,4 -4,3 -7,5 -9,9l-5 38 -14 2 9 -63 13 -2 -2 14c2,-5 5,-8 9,-11 3,-3 7,-5 10,-5 1,0 1,0 2,0 0,0 0,0 1,0l-2 14 0 0zm0 0l0 0 0 0z" inkscape:connector-curvature="0"/>
    </g>
   </g>
  </g>
  <g>
   <path class="fil23" d="M8995 4524l-284 0c-13,-9 -25,-19 -37,-30l-140 -141c-23,-23 -60,-36 -101,-36 -25,0 -49,5 -69,15 -51,24 -104,46 -157,65 -54,19 -100,76 -105,127l-830 0c-5,-51 -51,-108 -105,-127 -53,-19 -105,-41 -157,-65 -20,-10 -44,-15 -69,-15 -40,0 -78,13 -101,36l-140 140c-12,12 -24,22 -37,31l-284 0c-13,-9 -25,-19 -37,-31l-228 -228c-99,-99 -99,-259 0,-357l140 -141c38,-38 48,-116 22,-170 -25,-51 -47,-104 -66,-157 -20,-57 -83,-106 -136,-106l-197 0c-140,0 -253,-113 -253,-252l0 -323c0,-139 113,-253 253,-253l197 0c53,0 116,-48 136,-105 19,-53 41,-106 66,-157 26,-55 16,-133 -22,-170l-140 -141c-48,-48 -74,-111 -74,-179 0,-67 26,-130 74,-178l228 -228c48,-48 112,-74 179,-74 68,0 131,26 179,74l140 140c23,23 60,36 101,36 25,0 49,-5 69,-15 51,-25 104,-47 157,-65 58,-21 106,-83 106,-137l0 -197c0,-139 113,-253 253,-253l322 0c140,0 253,114 253,253l0 197c0,54 48,116 106,137 53,18 106,41 157,65 20,10 44,15 69,15 41,0 78,-13 101,-36l140 -140c48,-48 112,-74 179,-74 67,0 131,26 179,74l228 228c98,98 98,259 0,357l-141 141c-38,37 -47,115 -21,170 25,51 47,104 66,157 20,57 82,105 136,105l197 0c140,0 253,114 253,253l0 323c0,139 -113,252 -253,252l-197 0c-54,0 -116,49 -136,106 -19,53 -41,106 -66,157 -26,55 -16,132 21,170l141 141c98,98 98,259 0,357l-228 228c-12,12 -24,22 -37,31zm-1308 -2344c-408,0 -740,332 -740,740 0,409 332,741 740,741 408,0 740,-332 740,-741 0,-408 -332,-740 -740,-740z"/>
   <path class="fil23" d="M5459 1685l-161 0c-93,0 -169,-75 -169,-168l0 -99c0,-7 -11,-23 -25,-28 -28,-10 -55,-22 -82,-35 -5,-2 -11,-3 -17,-3 -11,0 -18,3 -20,6l-71 70c-31,32 -74,49 -119,49 -45,0 -87,-17 -119,-49l-114 -114c-32,-32 -49,-74 -49,-119 0,-45 17,-88 49,-119l70 -71c6,-5 9,-24 3,-37 -13,-26 -25,-54 -35,-82 -5,-14 -21,-25 -28,-25l-99 0c-93,0 -168,-76 -168,-168l0 -162c0,-93 75,-168 168,-168l99 0c7,0 23,-12 28,-25 10,-28 22,-56 35,-83 6,-12 3,-31 -3,-37l-70 -70c-9,-10 -18,-20 -24,-31l1681 0c-7,11 -15,21 -25,31l-70 70c-5,5 -8,25 -2,37 13,27 24,55 34,83 5,13 21,25 29,25l99 0c92,0 168,75 168,168l0 161c0,93 -76,169 -168,169l-99 0c-8,0 -24,11 -29,25 -10,28 -21,55 -34,83 -6,12 -3,31 2,36l70 71c66,65 66,172 0,238l-114 114c-31,32 -74,49 -119,49 -45,0 -87,-17 -119,-49l-70 -70c-2,-3 -10,-6 -21,-6 -6,0 -12,1 -16,3 -27,13 -55,25 -83,35 -13,5 -25,21 -25,28l0 99c0,93 -75,168 -168,168zm-81 -1401c-181,0 -328,147 -328,328 0,181 147,328 328,328 181,0 328,-147 328,-328 0,-181 -147,-328 -328,-328z"/>
  </g>
  <polygon class="fil24" points="4480,1199 6110,1199 6110,843 4480,843 "/>
  <polygon class="fil24" points="6212,1199 7791,1199 7791,843 6212,843 "/>
  <polygon class="fil24" points="7944,1199 9575,1199 9575,843 7944,843 "/>
  <polygon class="fil25" points="4480,2626 6110,2626 6110,1403 4480,1403 "/>
  <polygon class="fil26" points="7944,2626 9575,2626 9575,1403 7944,1403 "/>
  <polygon class="fil27" points="6212,2626 7791,2626 7791,1403 6212,1403 "/>
  <polygon class="fil28" points="4480,3033 8556,3033 8556,2779 4480,2779 "/>
  <polygon class="fil26" points="4480,3390 7537,3390 7537,3135 4480,3135 "/>
  <polygon class="fil28" points="4480,3798 9575,3798 9575,3543 4480,3543 "/>
  <g>
   <path class="fil21" d="M8292 335l462 0c8,0 15,7 15,15l0 214c0,8 -7,14 -15,14l-462 0c-9,0 -16,-6 -16,-14l0 -214c0,-8 7,-15 16,-15z"/>
   <g id="g3819_0">
    <g>
     <path id="path2993_1" class="fil22" d="M8294 554l0 -205 67 0c16,0 29,3 40,8 12,5 21,13 29,22 8,9 14,20 17,33 4,12 6,25 6,39 0,16 -2,30 -6,43 -4,12 -11,23 -19,32 -8,9 -17,16 -29,21 -11,5 -24,7 -38,7l-67 0 0 0zm123 -103c0,-10 -1,-19 -4,-27 -2,-8 -6,-15 -11,-21 -4,-6 -10,-11 -17,-14 -7,-4 -15,-5 -24,-5l-31 0 0 135 31 0c9,0 17,-2 24,-5 7,-3 13,-8 17,-14 5,-6 9,-14 11,-22 3,-8 4,-17 4,-27l0 0zm0 0l0 0 0 0z" inkscape:connector-curvature="0"/>
    </g>
    <g>
     <path id="path2995_2" class="fil22" d="M8543 557c-11,0 -21,-2 -30,-6 -9,-4 -17,-10 -23,-17 -6,-7 -11,-15 -15,-25 -3,-9 -5,-19 -5,-30 0,-11 2,-21 5,-30 4,-10 8,-18 15,-25 6,-8 14,-13 22,-18 10,-4 20,-6 31,-6 11,0 21,2 30,6 9,5 16,10 22,17 7,8 11,16 14,25 4,10 5,20 5,30 0,2 0,5 0,7 0,2 0,4 0,6l-107 0c1,6 2,11 4,16 2,4 5,8 9,12 3,3 7,5 11,7 4,2 8,3 13,3 7,0 13,-2 20,-6 6,-4 10,-9 12,-15l31 9c-5,12 -14,22 -25,29 -11,7 -24,11 -39,11l0 0zm35 -91c-1,-12 -4,-21 -11,-27 -7,-7 -15,-11 -25,-11 -4,0 -9,1 -13,3 -4,2 -8,4 -11,8 -3,3 -6,7 -8,11 -2,5 -3,10 -3,16l71 0 0 0zm0 0l0 0 0 0z" inkscape:connector-curvature="0"/>
    </g>
    <g>
     <path id="path2997_3" class="fil22" d="M8669 554l-51 -151 36 0 35 120 35 -120 33 0 -50 151 -38 0 0 0zm0 0l0 0 0 0z" inkscape:connector-curvature="0"/>
    </g>
   </g>
   <g id="g3824_4">
    <polygon id="path2994_5" class="fil6" points="8935,358 8935,563 8901,563 8901,476 8822,476 8822,563 8788,563 8788,358 8822,358 8822,441 8901,441 8901,358 " inkscape:connector-curvature="0"/>
    <path id="path2996_6" class="fil6" d="M9006 566c-13,0 -23,-5 -30,-15 -7,-10 -10,-25 -10,-44l0 -95 33 0 0 86c0,24 7,35 21,35 7,0 13,-2 19,-6 6,-5 11,-12 14,-21l0 -94 33 0 0 107c0,4 1,7 2,9 2,1 4,2 7,2l0 33c-3,1 -6,2 -9,2 -3,0 -5,0 -7,0 -6,0 -10,-1 -14,-4 -3,-3 -5,-8 -6,-14l-1 -12c-5,10 -13,18 -22,23 -9,6 -19,8 -30,8z" inkscape:connector-curvature="0"/>
    <g>
     <path id="path2998_7" class="fil6" d="M9239 563l-33 0 0 -85c0,-12 -2,-21 -5,-26 -4,-6 -9,-9 -15,-9 -4,0 -7,1 -10,3 -4,1 -7,3 -10,6 -3,3 -6,6 -8,10 -3,4 -5,8 -6,13l0 88 -33 0 0 -151 30 0 0 28c5,-10 12,-17 21,-23 9,-5 19,-8 30,-8 8,0 15,2 20,5 5,4 9,8 11,14 3,6 5,12 6,19 1,7 2,14 2,22l0 94 0 0zm0 0l0 0 0 0z" inkscape:connector-curvature="0"/>
    </g>
    <g>
     <path id="path3000_8" class="fil6" d="M9344 556c-5,2 -10,4 -17,7 -6,2 -13,3 -20,3 -5,0 -9,-1 -13,-2 -4,-1 -7,-3 -11,-6 -2,-3 -5,-7 -7,-12 -1,-5 -2,-11 -2,-17l0 -87 -17 0 0 -30 17 0 0 -49 33 0 0 49 27 0 0 30 -27 0 0 74c0,5 1,9 3,11 3,2 6,3 9,3 3,0 7,0 10,-2 3,-1 6,-2 8,-3l7 31 0 0zm0 0l0 0 0 0z" inkscape:connector-curvature="0"/>
    </g>
    <g>
     <path id="path3002_9" class="fil6" d="M9420 566c-10,0 -20,-2 -28,-6 -8,-4 -15,-10 -21,-17 -6,-7 -11,-15 -14,-25 -3,-9 -5,-19 -5,-30 0,-10 2,-20 5,-30 3,-10 8,-18 13,-25 6,-7 13,-13 22,-17 8,-5 18,-7 28,-7 11,0 20,2 28,7 8,4 15,10 21,17 6,7 10,15 13,25 4,9 5,19 5,29 0,3 0,5 0,7 0,3 0,5 -1,6l-99 0c1,6 2,11 4,16 2,5 4,9 7,12 3,3 7,6 11,7 4,2 8,3 12,3 7,0 13,-2 19,-6 5,-3 9,-8 12,-15l28 10c-5,11 -13,21 -23,28 -10,8 -23,11 -37,11l0 0zm33 -91c-1,-11 -4,-21 -11,-27 -6,-7 -13,-11 -22,-11 -5,0 -9,1 -13,3 -4,2 -7,4 -10,8 -3,3 -5,7 -7,12 -2,4 -3,9 -3,15l66 0 0 0zm0 0l0 0 0 0z" inkscape:connector-curvature="0"/>
    </g>
    <g>
     <path id="path3004_10" class="fil6" d="M9584 445c-10,1 -19,3 -27,7 -8,5 -14,11 -17,20l0 91 -33 0 0 -151 30 0 0 32c5,-10 10,-19 17,-25 8,-6 15,-9 23,-9 2,0 3,0 4,0 1,0 2,0 3,0l0 35 0 0zm0 0l0 0 0 0z" inkscape:connector-curvature="0"/>
    </g>
   </g>
  </g>
 </g>
</svg>
