<?xml version="1.0" encoding="UTF-8"?>
<!DOCTYPE svg PUBLIC "-//W3C//DTD SVG 1.1//EN" "http://www.w3.org/Graphics/SVG/1.1/DTD/svg11.dtd">
<!-- Creator: CorelDRAW X7 -->
<svg xmlns="http://www.w3.org/2000/svg" xml:space="preserve" width="9.21599cm" height="7.01871cm" version="1.1" style="shape-rendering:geometricPrecision; text-rendering:geometricPrecision; image-rendering:optimizeQuality; fill-rule:evenodd; clip-rule:evenodd"
viewBox="0 0 10220 7784"
 xmlns:xlink="http://www.w3.org/1999/xlink">
 <defs>
  <style type="text/css">
   <![CDATA[
    .fil9 {fill:none}
    .fil16 {fill:#292D34}
    .fil11 {fill:black}
    .fil3 {fill:#333333}
    .fil21 {fill:#3CADD4}
    .fil7 {fill:#4D4D4D}
    .fil8 {fill:#666666}
    .fil12 {fill:#B3B3B3}
    .fil5 {fill:#CCCCCC}
    .fil6 {fill:#E6E6E6}
    .fil22 {fill:white}
    .fil10 {fill:white}
    .fil4 {fill:#FEFEFE;fill-rule:nonzero}
    .fil18 {fill:#EA5640;fill-rule:nonzero}
    .fil17 {fill:#DA452E;fill-rule:nonzero}
    .fil20 {fill:#D44028;fill-rule:nonzero}
    .fil19 {fill:#C43428;fill-rule:nonzero}
    .fil14 {fill:#30353A;fill-rule:nonzero}
    .fil15 {fill:#283B48;fill-rule:nonzero}
    .fil0 {fill:black;fill-rule:nonzero}
    .fil28 {fill:#00A2B2;fill-rule:nonzero}
    .fil24 {fill:#155C76;fill-rule:nonzero}
    .fil1 {fill:#333333;fill-rule:nonzero}
    .fil2 {fill:gray;fill-rule:nonzero}
    .fil26 {fill:#B0CB1F;fill-rule:nonzero}
    .fil13 {fill:#CCCCCC;fill-rule:nonzero}
    .fil25 {fill:#EA60FC;fill-rule:nonzero}
    .fil23 {fill:#EFEFF0;fill-rule:nonzero}
    .fil27 {fill:#FF6600;fill-rule:nonzero}
   ]]>
  </style>
    <clipPath id="id0">
     <path d="M2002 1733c21,58 42,116 63,174 15,-55 30,-110 44,-165 39,66 77,167 175,187 259,53 467,311 650,692 91,189 213,211 387,190 -64,100 -180,134 -387,49 67,106 161,179 294,201 -173,61 -292,-45 -437,-58 -243,-22 -423,324 -794,307l-10 0c-369,-18 -549,-329 -791,-307 -145,13 -264,119 -437,58 133,-22 227,-95 295,-201 -208,85 -324,51 -388,-49 174,21 296,-1 387,-190 184,-381 391,-639 650,-692 98,-20 137,-121 175,-187 15,55 29,110 44,165 21,-58 60,-116 80,-174z"/>
    </clipPath>
    <clipPath id="id1" style="clip-rule:nonzero">
     <path d="M2023 5967l120 0 0 -65 -120 0 0 65 0 0z"/>
    </clipPath>
    <clipPath id="id2" style="clip-rule:nonzero">
     <path d="M2023 5902l120 0 0 -303 -120 0 0 303 0 0z"/>
    </clipPath>
    <clipPath id="id3" style="clip-rule:nonzero">
     <path d="M2023 5599l120 0 0 -131 -120 0 0 131 0 0z"/>
    </clipPath>
 </defs>
 <g id="Capa_x0020_1">
  <metadata id="CorelCorpID_0Corel-Layer"/>
  <g>
   <polygon class="fil0" points="6886,6470 6592,6470 6591,3550 6886,3550 "/>
  </g>
  <g>
   <polygon class="fil1" points="4710,6962 6609,3479 6867,3621 4969,7104 "/>
  </g>
  <g>
   <polygon class="fil1" points="8766,6962 8508,7104 6609,3621 6867,3479 "/>
  </g>
  <polygon class="fil2" points="3357,5147 10220,5147 10220,0 3357,0 "/>
  <polygon class="fil3" points="3357,5147 10220,0 10220,5147 "/>
  <polygon class="fil4" points="3531,5016 6789,5016 6789,5017 7133,5017 7133,5016 8155,5016 8155,5017 8504,5017 8504,5016 9184,5016 9184,5017 10047,5017 10047,5017 10047,130 10047,130 10046,130 9184,130 9184,130 8504,130 8504,130 6789,130 6789,130 6669,130 6669,129 4393,129 4393,130 3531,130 3531,5016 3531,5017 3531,5017 3531,5017 "/>
  <g>
   <ellipse class="fil5" cx="1852" cy="3906" rx="743" ry="1319"/>
   <ellipse class="fil5" cx="2089" cy="3906" rx="743" ry="1319"/>
   <ellipse class="fil6" cx="1978" cy="3906" rx="743" ry="1319"/>
   <path class="fil7" d="M1376 3021c-61,123 -22,325 95,464 11,-52 34,-79 72,-80 -18,83 19,154 102,213 -17,-52 -11,-84 13,-98 5,77 37,146 107,205 -7,-40 3,-64 23,-80 -1,88 27,172 80,254 -7,-56 1,-94 18,-120 37,50 87,115 100,198 14,-83 47,-148 84,-198 17,26 25,64 18,120 53,-82 81,-166 80,-254 19,16 30,40 22,80 71,-59 103,-128 107,-205 25,14 31,46 14,98 83,-59 120,-130 102,-213 37,1 61,28 72,80 117,-139 156,-341 95,-464 12,32 -589,318 -594,275l0 14c-25,11 -623,-257 -610,-289z"/>
   <path class="fil6" d="M3094 1684c95,140 -20,521 -189,874l-7 -11c-128,-248 -267,-437 -427,-540 219,-240 459,-388 623,-323z"/>
   <path class="fil8" d="M2983 1854c67,98 -11,364 -129,612 -93,-167 -192,-303 -301,-397 153,-162 317,-260 430,-215z"/>
   <path class="fil6" d="M2002 1733c21,58 42,116 63,174 15,-55 30,-110 44,-165 39,66 77,167 175,187 259,53 467,311 650,692 91,189 213,211 387,190 -64,100 -180,134 -387,49 67,106 161,179 294,201 -173,61 -292,-45 -437,-58 -243,-22 -423,324 -794,307l-10 0c-369,-18 -549,-329 -791,-307 -145,13 -264,119 -437,58 133,-22 227,-95 295,-201 -208,85 -324,51 -388,-49 174,21 296,-1 387,-190 184,-381 391,-639 650,-692 98,-20 137,-121 175,-187 15,55 29,110 44,165 21,-58 60,-116 80,-174z"/>
   <g style="clip-path:url(#id0)">
    <g>
     <path id="1" class="fil5" d="M2011 2607c-13,59 -35,114 -61,156 8,23 25,3 35,35l57 1c172,4 176,63 88,178l-88 109c-7,7 -15,14 -24,20 -2,2 -4,3 -6,4 -3,15 -33,29 -24,72 2,14 3,25 2,33 -2,29 -20,33 -24,41 -14,29 -35,31 -57,30 -18,-1 -37,-4 -54,4 38,10 79,16 121,19 3,0 7,0 10,1 0,0 1,0 1,0l10 0c63,3 121,-5 175,-19 138,-38 247,-122 349,-189 25,-17 49,-32 73,-46 9,-5 18,-10 27,-14 31,-16 62,-28 94,-34 25,-5 50,-7 76,-5 145,13 264,119 437,58 -133,-22 -227,-95 -294,-201 207,85 323,51 387,-49 -174,21 -296,-1 -387,-190 -12,-25 -24,-50 -36,-74 -15,-28 -29,-55 -44,-81 -25,-45 -50,-87 -76,-127l-2 8 -148 -196 5 -3c-26,-29 -53,-55 -80,-79 -27,-23 -54,-44 -82,-62 -60,-38 -122,-65 -187,-78 -98,-20 -136,-121 -175,-187l-30 112c15,5 9,49 9,49 -159,20 -36,31 -64,175 -12,63 31,72 -30,97 -1,4 -6,20 -9,22 -30,18 -40,103 -19,102 19,0 21,58 29,73 30,61 33,140 20,216 0,1 -1,2 -1,3 -1,6 -2,11 -3,16zm435 92c-23,12 -48,21 -75,26 -15,3 -31,4 -48,4 -34,0 -67,-7 -97,-19 -29,-11 -56,-28 -79,-48 -20,-19 -37,-40 -51,-64 -2,-4 -5,-8 -7,-11 -18,-37 -29,-77 -29,-121 0,-145 118,-263 263,-263 145,0 263,118 263,263 0,101 -57,189 -140,233z"/>
     <path class="fil7" d="M895 2175c365,-19 730,-41 1095,0 368,-48 735,-24 1102,0 0,194 0,388 0,582 -367,44 -734,76 -1102,0 -367,81 -728,47 -1095,0 0,-194 0,-388 0,-582z"/>
     <path class="fil3" d="M2013 2608c-10,57 -28,111 -49,155 9,-2 17,-4 26,-6 113,24 226,37 339,42 43,3 86,4 129,4 37,0 73,0 109,-2 159,-4 317,-19 475,-38 17,-2 33,-4 50,-6l0 -582c-11,0 -21,-1 -31,-2 -30,-2 -60,-4 -90,-6 -80,-5 -160,-9 -241,-13l20 -81 -117 75 -4 2c-210,-6 -421,-3 -632,24 -2,1 -4,1 -7,1 -2,0 -4,0 -7,-1 -19,15 -30,64 -28,91 1,12 5,20 11,19 19,0 21,63 29,80 14,31 22,67 26,105 1,12 1,25 1,37 0,27 -2,55 -6,82 0,1 0,2 0,3 -1,6 -2,11 -3,17z"/>
    </g>
   </g>
   <path class="fil9" d="M2002 1733c21,58 42,116 63,174 15,-55 30,-110 44,-165 39,66 77,167 175,187 259,53 467,311 650,692 91,189 213,211 387,190 -64,100 -180,134 -387,49 67,106 161,179 294,201 -173,61 -292,-45 -437,-58 -243,-22 -423,324 -794,307l-10 0c-369,-18 -549,-329 -791,-307 -145,13 -264,119 -437,58 133,-22 227,-95 295,-201 -208,85 -324,51 -388,-49 174,21 296,-1 387,-190 184,-381 391,-639 650,-692 98,-20 137,-121 175,-187 15,55 29,110 44,165 21,-58 60,-116 80,-174z"/>
   <circle class="fil10" cx="2323" cy="2466" r="263"/>
   <path class="fil6" d="M891 1684c-95,140 20,521 189,874l7 -11c128,-248 270,-435 430,-538 -219,-240 -462,-390 -626,-325z"/>
   <circle class="fil3" cx="1684" cy="2489" r="263"/>
   <path class="fil8" d="M1004 1856c-67,98 11,364 129,612 93,-167 192,-303 302,-397 -153,-162 -318,-260 -431,-215z"/>
   <circle class="fil10" cx="1662" cy="2466" r="263"/>
   <path class="fil11" d="M1988 3116c23,0 40,-17 54,-30l88 -109c88,-115 84,-174 -88,-178l-57 -1 -58 1c-172,4 -176,63 -88,178l88 109c14,13 39,30 61,30z"/>
   <circle class="fil11" cx="2323" cy="2466" r="82"/>
   <circle class="fil11" cx="1662" cy="2466" r="82"/>
   <polygon class="fil7" points="1204,2355 1159,2197 1219,2224 1204,2168 1257,2191 1230,2081 1353,2159 "/>
   <polygon class="fil3" points="2776,2347 2821,2189 2761,2216 2776,2160 2723,2183 2750,2073 2628,2151 "/>
   <path class="fil3" d="M2069 3507c-113,56 -16,142 -81,186 -88,59 -63,28 -77,120 32,45 65,99 75,164 14,-83 47,-148 84,-198 17,26 25,64 18,120 53,-82 81,-166 80,-254 19,16 30,40 22,80 71,-59 103,-128 107,-205 25,14 31,46 14,98 83,-59 120,-130 102,-213 37,1 61,28 72,80 42,-50 74,-108 95,-168 32,-91 38,-186 14,-261 -24,14 -48,29 -73,46 -102,67 -211,151 -349,189 0,0 -39,36 -40,40 -7,46 -18,153 -63,176z"/>
   <path class="fil3" d="M1077 2085c0,-135 -11,-143 37,-235 -41,-10 -79,-9 -112,4 -68,98 11,364 129,612 0,0 0,0 0,0 -13,-44 -25,-110 -25,-111 -21,-29 -29,-222 -29,-270z"/>
   <path class="fil3" d="M2802 2377c18,29 35,58 52,89 64,-135 117,-276 140,-391 -10,29 -20,58 -29,80 -30,79 -74,186 -163,222z"/>
   <path class="fil5" d="M871 2854c-87,10 -112,-7 -186,-17 65,78 175,99 356,28 -34,-31 -127,-17 -170,-11z"/>
   <path class="fil5" d="M1253 2959c-74,-28 -163,18 -228,64 -68,47 -170,50 -254,42 166,52 283,-49 425,-62 11,-1 22,-1 33,-1 32,1 64,8 95,18 -10,-14 -23,-30 -27,-34 -14,-13 -29,-22 -44,-27z"/>
   <path class="fil12" d="M3037 2759c-1,8 34,52 46,55 23,6 25,15 63,19 25,2 26,8 66,8 22,0 69,-1 93,-7 6,-7 11,-15 16,-23 -115,14 -208,9 -284,-52z"/>
   <path class="fil12" d="M3070 3001c-55,-35 -99,-83 -136,-141 -10,20 16,76 30,90 -6,21 77,50 101,51 2,0 3,0 5,0z"/>
   <path class="fil5" d="M2101 1987c0,-49 16,-27 16,-68 0,-9 -4,-23 -14,-23 -36,-1 -15,1 -33,8 -4,2 -1,0 -5,3l-63 -174c9,55 14,88 -1,143 -8,30 -1,50 4,56 1,0 2,0 4,1 21,2 32,10 66,28 0,0 25,26 26,26z"/>
   <g>
    <path class="fil0" d="M1935 3233c-10,-2 -18,-12 -16,-22 1,-11 11,-18 22,-16l-6 38zm313 -149l28 27 -14 13 -13 13 -15 11 -14 11 -14 10 -15 9 -14 8 -15 7 -14 7 -15 6 -14 5 -14 4 -14 4 -13 4 -13 3 -13 2 -12 2 -12 2 -12 1 -10 1 -10 0 -10 1 -9 0 -8 0 -7 0 -7 -1 -6 0 -4 0 -4 -1 -3 0 -2 0 -1 0 6 -38 0 0 1 0 2 0 4 0 4 1 5 0 6 0 7 0 7 1 8 -1 9 0 9 0 10 -1 10 -1 11 -2 11 -2 12 -2 12 -2 12 -4 13 -3 13 -4 12 -5 13 -5 14 -6 13 -7 13 -7 13 -8 13 -9 13 -10 13 -10 12 -11 12 -13zm0 0c8,-7 20,-8 28,0 7,7 7,19 0,27l-28 -27z"/>
   </g>
   <ellipse class="fil3" transform="matrix(1.28671E-014 0.485834 -0.618101 1.63701E-014 1109.41 3951.86)" rx="290" ry="317"/>
   <ellipse class="fil3" cx="3031" cy="3926" rx="141" ry="196"/>
   <circle class="fil10" cx="1626" cy="2436" r="19"/>
   <circle class="fil10" cx="2293" cy="2436" r="19"/>
   <g>
    <g>
     <polygon class="fil8" points="2465,3262 3757,3157 3544,4057 3533,4075 3550,4084 2371,4271 2323,4176 "/>
     <path id="1" class="fil13" d="M3757 3163l-1292 104 -1 -11 1292 -104 6 7 -5 4zm-1 -11l8 0 -2 7 -6 -7zm-218 904l214 -900 10 3 -213 899 -1 2 -10 -4zm11 2l0 1 -1 1 1 -2zm-20 14l10 -17 9 5 -10 17 -7 2 -2 -7zm2 7l-5 -2 3 -5 2 7zm16 9l-16 -9 5 -9 16 9 -2 10 -3 -1zm5 -9l14 8 -16 2 2 -10zm-1182 187l1179 -187 1 10 -1178 187 -6 -2 4 -8zm2 10l-4 1 -2 -3 6 2zm-45 -102l48 95 -9 5 -48 -95 -1 -3 10 -2zm-9 5l-1 -2 0 -1 1 3zm152 -917l-142 915 -11 -1 143 -915 4 -5 6 6zm-10 -1l0 -4 4 -1 -4 5z"/>
    </g>
    <g>
     <polygon class="fil8" points="3550,4084 3530,4164 2382,4359 2371,4271 "/>
     <path id="1" class="fil13" d="M3524 4162l21 -80 10 3 -20 80 -5 4 -6 -7zm11 3l-1 3 -4 1 5 -4zm-1154 189l1148 -196 1 11 -1148 196 -6 -5 5 -6zm1 11l-5 1 -1 -6 6 5zm-6 -95l11 89 -11 1 -10 -88 4 -6 6 4zm-10 2l-1 -5 5 -1 -4 6zm1184 -183l-1178 187 -2 -10 1179 -187 6 6 -5 4zm-1 -10l8 -2 -2 8 -6 -6z"/>
    </g>
   </g>
   <path class="fil14" d="M1946 7784c1074,0 1945,-75 1945,-167 0,-92 -871,-166 -1945,-166 -23,0 -45,0 -68,0l0 0c-1043,3 -1878,76 -1878,166 0,91 856,165 1918,167 0,-2 1,-4 2,-6 1,-4 5,-6 10,-7 0,0 0,0 1,0 4,0 8,2 10,5 1,2 2,5 2,8 1,0 2,0 3,0z"/>
   <g style="clip-path:url(#id1)">
    <image transform="matrix(-3.21916 -0 -0 1.83398 2146.08 5898.92)" x="0" y="0" width="39.1251" height="39.1251" xlink:href="conferencia 2_Images\conferencia 2_ImgID1.png"/>
   </g>
   <g style="clip-path:url(#id2)">
    <image transform="matrix(-3.21916 -0 -0 7.95647 2146.08 5594.35)" x="0" y="0" width="39.1251" height="39.1251" xlink:href="conferencia 2_Images\conferencia 2_ImgID2.png"/>
   </g>
   <g style="clip-path:url(#id3)">
    <image transform="matrix(-3.21916 -0 -0 3.49619 2146.08 5464.28)" x="0" y="0" width="39.1251" height="39.1251" xlink:href="conferencia 2_Images\conferencia 2_ImgID3.png"/>
   </g>
   <g>
    <g>
     <path class="fil15" d="M664 4118c2,20 -14,37 -34,38 -20,1 -37,-15 -38,-35l-25 -463c-2,-48 17,-95 49,-135 33,-42 79,-75 126,-92l457 -160c19,-7 40,3 47,22 6,19 -4,40 -23,46l-458 161c-33,11 -68,37 -92,68 -21,27 -35,57 -33,86l24 464z"/>
     <path class="fil16" d="M901 3335l276 -97c39,-14 82,7 96,45 13,39 -7,82 -46,96l-276 97c-39,13 -82,-7 -96,-46 -13,-39 7,-82 46,-95z"/>
    </g>
    <path class="fil16" d="M628 4303c101,0 184,-82 184,-183 0,-102 -83,-184 -184,-184 -101,0 -183,82 -183,184 0,101 82,183 183,183z"/>
   </g>
   <polygon class="fil17" points="3776,4123 3711,4936 1959,4936 1959,4123 "/>
   <polygon class="fil18" points="115,4123 1966,4123 1966,4936 181,4936 "/>
   <polygon class="fil19" points="3776,4127 1959,4127 1959,4028 3776,4028 "/>
   <polygon class="fil20" points="1966,4127 115,4127 115,4028 1966,4028 "/>
   <polygon class="fil19" points="2994,4529 2886,7420 1956,7420 1956,4529 "/>
   <polygon class="fil20" points="897,4529 1963,4529 1963,7420 1017,7420 "/>
   <polygon class="fil17" points="3281,7590 1956,7590 1956,7354 3281,7354 "/>
   <polygon class="fil18" points="1963,7590 610,7590 610,7354 1963,7354 "/>
   <g id="layer1" inkscape:label="Capa 1" inkscape:groupmode="layer">
    <path class="fil21" d="M2751 3673l216 -21c5,0 7,3 7,6l-15 99c-1,4 -4,7 -8,8l-217 20c-4,1 -7,-2 -7,-6l15 -99c1,-4 4,-7 9,-7z"/>
    <g id="g3819">
     <g>
      <path id="path2993" class="fil22" d="M2736 3774l15 -95 31 -3c8,-1 14,0 19,2 5,2 9,5 12,9 3,4 4,8 5,14 1,6 1,12 0,18 -1,7 -3,14 -6,20 -2,6 -6,11 -10,16 -5,4 -10,8 -16,11 -5,3 -11,4 -18,5l-32 3 0 0zm65 -53c1,-5 1,-9 0,-13 0,-3 -1,-7 -3,-9 -2,-3 -4,-5 -7,-6 -3,-1 -7,-1 -11,-1l-15 1 -9 63 15 -1c4,-1 8,-2 11,-4 4,-2 7,-4 9,-7 3,-3 5,-7 7,-11 1,-4 3,-8 3,-12l0 0zm0 0l0 0 0 0z" inkscape:connector-curvature="0"/>
     </g>
     <g>
      <path id="path2995" class="fil22" d="M2853 3764c-5,1 -10,0 -14,-1 -3,-2 -7,-4 -9,-7 -3,-3 -4,-7 -5,-11 -1,-4 -1,-9 -1,-14 1,-5 3,-9 5,-14 2,-4 5,-9 8,-12 4,-4 8,-7 12,-9 5,-3 10,-4 15,-5 5,0 10,1 14,2 4,2 7,4 9,7 2,3 4,7 5,11 1,4 1,9 0,13 0,1 0,3 0,4 -1,1 -1,2 -1,2l-50 5c0,3 0,5 1,7 1,2 2,4 3,5 1,2 3,3 5,3 1,1 3,1 6,1 3,0 6,-1 9,-3 3,-2 6,-5 7,-8l14 3c-3,6 -8,10 -14,14 -5,4 -12,7 -19,7l0 0zm23 -44c0,-5 -1,-9 -3,-12 -3,-3 -7,-4 -11,-4 -2,1 -5,1 -7,2 -2,1 -4,3 -5,4 -2,2 -3,4 -5,6 -1,2 -2,5 -2,7l33 -3 0 0zm0 0l0 0 0 0z" inkscape:connector-curvature="0"/>
     </g>
     <g>
      <path id="path2997" class="fil22" d="M2912 3757l-13 -68 17 -1 8 54 25 -57 16 -2 -35 73 -18 1 0 0zm0 0l0 0 0 0z" inkscape:connector-curvature="0"/>
     </g>
    </g>
    <g id="g3824">
     <polygon id="path2994" class="fil22" points="3051,3655 3037,3750 3021,3751 3027,3711 2990,3714 2984,3755 2968,3756 2982,3661 2998,3660 2992,3698 3029,3695 3035,3656 " inkscape:connector-curvature="0"/>
     <path id="path2996" class="fil22" d="M3070 3748c-6,0 -10,-1 -13,-6 -2,-4 -3,-11 -2,-20l7 -44 15 -1 -6 40c-1,11 1,16 8,15 3,0 6,-2 9,-4 3,-2 6,-6 9,-10l6 -44 15 -1 -7 49c0,2 0,4 0,4 1,1 2,1 3,1l-2 16c-2,0 -3,1 -4,1 -1,0 -3,0 -3,0 -3,1 -5,0 -7,-1 -1,-2 -2,-4 -2,-6l1 -6c-4,5 -8,9 -12,12 -5,3 -10,4 -15,5z" inkscape:connector-curvature="0"/>
     <g>
      <path id="path2998" class="fil22" d="M3180 3736l-16 2 6 -40c1,-5 1,-9 -1,-12 -1,-2 -3,-3 -6,-3 -2,0 -3,1 -5,2 -2,0 -3,2 -5,3 -2,1 -3,3 -4,5 -2,2 -3,4 -4,6l-6 41 -15 2 10 -71 14 -1 -2 13c3,-5 7,-8 11,-11 5,-3 10,-5 15,-5 4,-1 7,0 9,1 2,2 4,3 4,6 1,2 2,5 2,9 0,3 0,6 -1,9l-6 44 0 0zm0 0l0 0 0 0z" inkscape:connector-curvature="0"/>
     </g>
     <g>
      <path id="path3000" class="fil22" d="M3229 3728c-2,1 -5,3 -8,4 -3,1 -6,2 -10,2 -2,1 -4,1 -5,0 -2,0 -4,-1 -5,-2 -1,-2 -2,-3 -3,-5 0,-3 0,-5 0,-8l6 -41 -7 1 2 -14 7 0 4 -23 15 -2 -3 23 13 -1 -2 14 -13 1 -5 34c-1,3 0,4 1,5 1,1 2,2 4,1 1,0 3,0 4,-1 2,-1 3,-1 4,-2l1 14 0 0zm0 0l0 0 0 0z" inkscape:connector-curvature="0"/>
     </g>
     <g>
      <path id="path3002" class="fil22" d="M3265 3730c-5,0 -10,0 -13,-2 -4,-2 -7,-4 -9,-7 -2,-3 -4,-7 -5,-11 -1,-4 -1,-9 0,-13 1,-5 2,-10 4,-15 3,-4 5,-8 8,-12 4,-4 7,-7 12,-9 4,-2 9,-4 13,-4 5,-1 10,0 13,2 4,1 7,3 9,7 2,3 4,6 4,10 1,5 1,9 1,14 -1,1 -1,2 -1,3 0,1 0,2 -1,3l-46 4c-1,3 0,6 0,8 1,2 2,3 3,5 1,1 3,2 4,3 2,0 4,1 6,0 3,0 6,-1 9,-3 3,-2 5,-5 7,-7l12 3c-3,5 -7,10 -12,14 -6,4 -12,6 -18,7l0 0zm21 -44c1,-5 0,-9 -3,-12 -2,-3 -5,-5 -10,-4 -2,0 -4,1 -6,2 -2,1 -3,2 -5,4 -2,1 -3,3 -4,5 -1,3 -2,5 -3,8l31 -3 0 0zm0 0l0 0 0 0z" inkscape:connector-curvature="0"/>
     </g>
     <g>
      <path id="path3004" class="fil22" d="M3350 3666c-5,1 -9,2 -13,5 -4,2 -7,5 -10,9l-6 43 -15 1 10 -70 14 -1 -2 15c3,-5 6,-9 10,-13 4,-3 7,-5 11,-5 1,0 2,0 2,0 0,0 1,0 1,0l-2 16 0 0zm0 0l0 0 0 0z" inkscape:connector-curvature="0"/>
     </g>
    </g>
   </g>
  </g>
  <g>
   <path class="fil23" d="M8971 5017l-315 0c-15,-10 -28,-21 -41,-34l-156 -156c-25,-25 -66,-40 -111,-40 -28,0 -55,6 -77,17 -57,27 -116,52 -174,73 -60,21 -111,83 -117,140l-919 0c-6,-57 -57,-119 -117,-140 -59,-21 -117,-46 -174,-73 -22,-11 -49,-17 -77,-17 -45,0 -87,15 -112,40l-156 156c-12,13 -26,24 -40,34l-315 0c-15,-10 -28,-21 -41,-34l-253 -253c-109,-109 -109,-287 0,-396l156 -156c42,-42 52,-129 23,-189 -27,-57 -52,-115 -72,-174 -23,-64 -92,-117 -151,-117l-219 0c-155,0 -281,-126 -281,-280l0 -358c0,-155 126,-280 281,-280l219 0c59,0 128,-54 150,-118 21,-58 46,-117 73,-174 29,-60 19,-146 -23,-188l-156 -156c-53,-53 -82,-124 -82,-198 0,-75 29,-146 82,-198l253 -254c53,-52 123,-82 198,-82 75,0 146,30 198,82l156 156c25,25 67,40 112,40 27,0 55,-6 77,-16 56,-28 115,-52 174,-73 63,-23 117,-92 117,-151l0 -219c0,-155 126,-280 280,-280l358 0c155,0 280,125 280,280l0 219c0,59 54,128 118,151 58,21 117,45 174,73 22,11 49,16 77,16 45,0 86,-15 111,-40l156 -155c53,-53 124,-83 198,-83 75,0 146,30 199,83l253 253c109,109 109,287 0,396l-156 156c-42,42 -53,128 -24,188 28,57 52,116 73,174 23,64 92,118 151,118l219 0c154,0 280,125 280,280l0 358c0,154 -125,280 -280,280l-219 0c-59,0 -128,53 -151,117 -21,59 -45,117 -73,174 -29,60 -18,147 24,189l156 156c109,109 109,287 0,396l-253 253c-13,13 -27,24 -41,34zm-1451 -2599c-452,0 -821,368 -821,821 0,452 369,821 821,821 453,0 821,-369 821,-821 0,-453 -368,-821 -821,-821z"/>
   <path class="fil23" d="M5050 1869l-179 0c-103,0 -187,-84 -187,-187l0 -109c0,-9 -13,-26 -28,-32 -31,-11 -62,-24 -92,-38 -4,-2 -11,-4 -18,-4 -12,0 -20,4 -22,7l-78 78c-36,35 -83,54 -132,54 -50,0 -97,-19 -133,-54l-126 -127c-35,-35 -55,-82 -55,-132 0,-50 20,-97 55,-132l78 -78c6,-6 9,-27 3,-41 -15,-30 -28,-61 -39,-92 -5,-15 -23,-27 -31,-27l-110 0c-103,0 -187,-84 -187,-187l0 -179c0,-103 84,-187 187,-187l110 0c8,0 26,-12 31,-27 11,-31 24,-62 39,-92 6,-14 3,-35 -3,-41l-78 -78c-11,-11 -20,-22 -27,-35l1864 0c-7,13 -16,24 -27,35l-78 78c-6,6 -9,27 -3,41 15,30 28,61 39,92 5,15 23,27 31,27l110 0c103,0 187,84 187,187l0 179c0,103 -84,187 -187,187l-110 0c-8,0 -26,12 -31,27 -11,31 -24,62 -39,92 -6,14 -3,35 3,41l78 78c73,73 73,191 0,264l-126 127c-36,35 -83,54 -132,54 -50,0 -97,-19 -133,-54l-78 -78c-2,-3 -10,-7 -22,-7 -7,0 -14,2 -18,4 -30,14 -61,27 -92,38 -15,6 -28,23 -28,32l0 109c0,103 -84,187 -186,187zm-90 -1554c-201,0 -364,163 -364,363 0,201 163,364 364,364 201,0 364,-163 364,-364 0,-200 -163,-363 -364,-363z"/>
  </g>
  <polygon class="fil24" points="3964,1330 5772,1330 5772,935 3964,935 "/>
  <polygon class="fil24" points="5885,1330 7636,1330 7636,935 5885,935 "/>
  <polygon class="fil24" points="7806,1330 9614,1330 9614,935 7806,935 "/>
  <polygon class="fil25" points="3964,2912 5772,2912 5772,1556 3964,1556 "/>
  <polygon class="fil26" points="7806,2912 9614,2912 9614,1556 7806,1556 "/>
  <polygon class="fil27" points="5885,2912 7636,2912 7636,1556 5885,1556 "/>
  <polygon class="fil28" points="3964,3364 8484,3364 8484,3081 3964,3081 "/>
  <polygon class="fil26" points="3964,3759 7354,3759 7354,3477 3964,3477 "/>
  <polygon class="fil28" points="3964,4211 9614,4211 9614,3929 3964,3929 "/>
  <g>
   <path class="fil21" d="M8191 372l512 0c10,0 18,7 18,16l0 237c0,9 -8,16 -18,16l-512 0c-10,0 -17,-7 -17,-16l0 -237c0,-9 7,-16 17,-16z"/>
   <g id="g3819_0">
    <g>
     <path id="path2993_1" class="fil22" d="M8193 615l0 -228 75 0c17,0 32,3 45,9 12,6 23,14 32,24 8,10 14,23 19,36 4,14 6,29 6,44 0,18 -2,33 -7,48 -5,13 -12,25 -21,35 -8,10 -19,18 -32,24 -12,5 -26,8 -42,8l-75 0 0 0zm137 -115c0,-10 -2,-21 -4,-30 -3,-9 -7,-17 -12,-23 -6,-7 -12,-12 -20,-16 -7,-3 -16,-5 -26,-5l-35 0 0 150 35 0c10,0 19,-2 27,-6 7,-4 14,-9 19,-16 5,-7 9,-15 12,-24 2,-9 4,-19 4,-30l0 0zm0 0l0 0 0 0z" inkscape:connector-curvature="0"/>
    </g>
    <g>
     <path id="path2995_2" class="fil22" d="M8469 618c-12,0 -23,-2 -33,-7 -10,-5 -18,-11 -25,-19 -7,-8 -13,-17 -17,-27 -3,-11 -5,-22 -5,-33 0,-12 2,-24 5,-34 4,-11 9,-20 16,-28 7,-8 16,-15 26,-19 10,-5 21,-7 33,-7 13,0 24,2 34,7 10,4 18,11 25,19 7,8 12,17 15,27 4,11 6,22 6,33 0,3 0,5 0,8 0,3 -1,5 -1,6l-118 0c1,7 2,13 5,18 2,5 5,10 9,13 3,4 7,7 12,8 5,2 10,3 15,3 7,0 15,-2 21,-6 7,-4 12,-10 15,-16l33 10c-5,13 -14,23 -27,32 -12,8 -27,12 -44,12l0 0zm40 -102c-1,-12 -5,-22 -13,-30 -7,-7 -16,-11 -27,-11 -5,0 -10,1 -15,3 -4,2 -8,5 -12,8 -3,4 -6,8 -9,13 -2,6 -3,11 -3,17l79 0 0 0zm0 0l0 0 0 0z" inkscape:connector-curvature="0"/>
    </g>
    <g>
     <path id="path2997_3" class="fil22" d="M8609 615l-56 -168 40 0 39 133 39 -133 36 0 -56 168 -42 0 0 0zm0 0l0 0 0 0z" inkscape:connector-curvature="0"/>
    </g>
   </g>
   <g id="g3824_4">
    <polygon id="path2994_5" class="fil3" points="8904,397 8904,625 8867,625 8867,528 8779,528 8779,625 8742,625 8742,397 8779,397 8779,489 8867,489 8867,397 " inkscape:connector-curvature="0"/>
    <path id="path2996_6" class="fil3" d="M8984 628c-15,0 -26,-6 -34,-17 -7,-11 -11,-27 -11,-49l0 -105 36 0 0 96c0,26 8,38 24,38 7,0 14,-2 20,-7 7,-5 13,-13 17,-23l0 -104 36 0 0 118c0,5 1,8 2,10 2,2 4,3 8,3l0 37c-4,1 -7,1 -10,1 -3,1 -6,1 -8,1 -6,0 -11,-2 -15,-5 -4,-4 -6,-9 -7,-15l-1 -14c-6,12 -15,21 -25,26 -9,6 -20,9 -32,9z" inkscape:connector-curvature="0"/>
    <g>
     <path id="path2998_7" class="fil3" d="M9241 625l-36 0 0 -94c0,-14 -2,-24 -6,-30 -4,-6 -10,-9 -17,-9 -3,0 -7,1 -11,2 -4,2 -7,4 -11,8 -3,3 -6,6 -9,11 -2,4 -4,9 -6,14l0 98 -36 0 0 -168 33 0 0 31c5,-11 13,-19 23,-25 10,-6 21,-9 33,-9 9,0 16,2 22,6 6,3 10,8 13,15 3,6 5,13 6,21 2,8 2,16 2,24l0 105 0 0zm0 0l0 0 0 0z" inkscape:connector-curvature="0"/>
    </g>
    <g>
     <path id="path3000_8" class="fil3" d="M9357 616c-4,3 -11,5 -18,8 -7,2 -14,4 -22,4 -5,0 -10,-1 -14,-3 -5,-1 -9,-3 -12,-7 -3,-3 -6,-7 -8,-12 -2,-6 -3,-12 -3,-20l0 -96 -18 0 0 -33 18 0 0 -55 36 0 0 55 31 0 0 33 -31 0 0 82c0,6 2,10 4,13 3,2 6,3 10,3 4,0 8,-1 11,-2 4,-2 7,-3 9,-4l7 34 0 0zm0 0l0 0 0 0z" inkscape:connector-curvature="0"/>
    </g>
    <g>
     <path id="path3002_9" class="fil3" d="M9442 628c-11,0 -22,-2 -31,-7 -9,-4 -17,-11 -23,-19 -7,-8 -12,-17 -16,-27 -3,-11 -5,-22 -5,-33 0,-12 2,-23 5,-34 4,-11 9,-20 15,-28 7,-8 15,-14 24,-19 9,-5 20,-7 31,-7 12,0 22,2 31,7 10,5 17,11 24,19 6,8 11,17 14,27 4,11 6,22 6,33 0,3 0,6 -1,8 0,3 0,5 0,7l-110 0c0,6 2,12 4,17 2,5 5,10 8,13 4,4 8,7 12,9 4,2 9,3 14,3 7,0 14,-2 20,-7 6,-4 11,-9 13,-16l31 10c-5,13 -13,23 -25,32 -11,8 -25,12 -41,12l0 0zm37 -101c-1,-13 -5,-23 -12,-30 -7,-8 -15,-12 -25,-12 -5,0 -10,1 -14,3 -4,2 -8,5 -11,9 -3,3 -6,8 -8,13 -2,5 -3,10 -4,17l74 0 0 0zm0 0l0 0 0 0z" inkscape:connector-curvature="0"/>
    </g>
    <g>
     <path id="path3004_10" class="fil3" d="M9624 494c-11,0 -21,3 -30,8 -9,4 -15,12 -19,21l0 102 -36 0 0 -168 33 0 0 36c5,-12 11,-21 19,-28 8,-7 17,-11 25,-11 2,0 4,0 5,0 1,0 2,1 3,1l0 39 0 0zm0 0l0 0 0 0z" inkscape:connector-curvature="0"/>
    </g>
   </g>
  </g>
 </g>
</svg>
