<?xml version="1.0" encoding="UTF-8" standalone="no"?>
<!-- Creator: CorelDRAW X7 -->

<svg
   xmlns:dc="http://purl.org/dc/elements/1.1/"
   xmlns:cc="http://creativecommons.org/ns#"
   xmlns:rdf="http://www.w3.org/1999/02/22-rdf-syntax-ns#"
   xmlns:svg="http://www.w3.org/2000/svg"
   xmlns="http://www.w3.org/2000/svg"
   xmlns:sodipodi="http://sodipodi.sourceforge.net/DTD/sodipodi-0.dtd"
   xmlns:inkscape="http://www.inkscape.org/namespaces/inkscape"
   xml:space="preserve"
   width="13.3807cm"
   height="13.7775cm"
   version="1.1"
   style="shape-rendering:geometricPrecision; text-rendering:geometricPrecision; image-rendering:optimizeQuality; fill-rule:evenodd; clip-rule:evenodd"
   viewBox="0 0 13381 13778"
   id="svg2"
   inkscape:version="0.48.4 r9939"
   sodipodi:docname="MASCOTA DEVHUNTER.svg"><metadata
     id="metadata133"><rdf:RDF><cc:Work
         rdf:about=""><dc:format>image/svg+xml</dc:format><dc:type
           rdf:resource="http://purl.org/dc/dcmitype/StillImage" /></cc:Work></rdf:RDF></metadata><sodipodi:namedview
     pagecolor="#ffffff"
     bordercolor="#666666"
     borderopacity="1"
     objecttolerance="10"
     gridtolerance="10"
     guidetolerance="10"
     inkscape:pageopacity="0"
     inkscape:pageshadow="2"
     inkscape:window-width="1360"
     inkscape:window-height="743"
     id="namedview131"
     showgrid="false"
     inkscape:zoom="0.96685819"
     inkscape:cx="331.39662"
     inkscape:cy="273.08629"
     inkscape:window-x="1366"
     inkscape:window-y="0"
     inkscape:window-maximized="1"
     inkscape:current-layer="_298784600" /><defs
     id="defs4"><style
       type="text/css"
       id="style6">
    .str0 {stroke:#E6E6E6;stroke-width:7.62001}
    .fil0 {fill:none}
    .fil7 {fill:black}
    .fil5 {fill:#333333}
    .fil11 {fill:#3CADD4}
    .fil3 {fill:#4D4D4D}
    .fil4 {fill:#666666}
    .fil8 {fill:#B3B3B3}
    .fil1 {fill:#CCCCCC}
    .fil2 {fill:#E6E6E6}
    .fil12 {fill:white}
    .fil6 {fill:white}
    .fil9 {fill:black;fill-rule:nonzero}
    .fil10 {fill:url(#id1)}
   </style><clipPath
       id="id0"><path
         d="M6733 569c99,275 197,550 296,825 71,-261 141,-522 212,-783 181,311 365,790 829,886 1231,254 2218,1482 3092,3291 433,896 1012,1003 1838,905 -306,475 -858,633 -1842,233 322,501 766,846 1398,953 -818,287 -1386,-213 -2075,-276 -1155,-104 -2011,1542 -3776,1459l-45 -2c-1756,-82 -2609,-1561 -3760,-1457 -689,63 -1257,563 -2075,276 632,-107 1076,-452 1397,-953 -984,400 -1535,242 -1842,-233 827,98 1406,-9 1839,-905 874,-1809 1861,-3037 3091,-3291 464,-96 648,-575 830,-886 70,261 141,522 212,783 98,-275 282,-550 381,-825z"
         id="path9" /></clipPath><linearGradient
       id="id1"
       gradientUnits="userSpaceOnUse"
       x1="1608.37"
       y1="11173.2"
       x2="11772.3"
       y2="11173.2"><stop
         offset="0"
         style="stop-opacity:1; stop-color:gray"
         id="stop12" /><stop
         offset="0.521569"
         style="stop-opacity:1; stop-color:#999999"
         id="stop14" /><stop
         offset="1"
         style="stop-opacity:1; stop-color:gray"
         id="stop16" /></linearGradient></defs><g
     id="Capa_x0020_1"><metadata
       id="CorelCorpID_0Corel-Layer" /><rect
       class="fil0 str0"
       x="4"
       y="4"
       width="13373"
       height="13770"
       id="rect20" /><g
       id="_298784600"><ellipse
         class="fil1"
         cx="6017"
         cy="8962"
         rx="3531"
         ry="4338"
         id="ellipse23" /><ellipse
         class="fil1"
         cx="7142"
         cy="8962"
         rx="3531"
         ry="4338"
         id="ellipse25" /><ellipse
         class="fil2"
         cx="6616"
         cy="8962"
         rx="3531"
         ry="4338"
         id="ellipse27" /><path
         class="fil3"
         d="M3754 6691c-290,583 -105,1542 454,2202 50,-247 163,-375 339,-382 -82,397 90,733 487,1017 -80,-249 -54,-400 64,-466 23,365 175,694 508,974 -36,-190 15,-304 106,-381 -3,417 130,818 381,1207 -34,-268 6,-445 85,-572 176,240 416,547 479,942 63,-395 221,-702 398,-942 79,127 118,304 84,572 252,-389 384,-790 381,-1207 92,77 142,191 106,381 334,-280 486,-609 508,-974 118,66 144,217 64,466 397,-284 570,-620 487,-1017 177,7 289,135 339,382 559,-660 744,-1619 454,-2202 59,148 -2800,1511 -2825,1305l0 65c-118,54 -2957,-1222 -2899,-1370z"
         id="path29" /><path
         class="fil2"
         d="M11919 336c454,662 -94,2475 -898,4150l-33 -48c-607,-1180 -1270,-2078 -2030,-2569 1044,-1139 2183,-1844 2961,-1533z"
         id="path31" /><path
         class="fil4"
         d="M11394 1143c320,466 -54,1727 -613,2908 -442,-795 -914,-1439 -1433,-1888 726,-769 1507,-1235 2046,-1020z"
         id="path33" /><path
         class="fil2"
         d="M6733 569c99,275 197,550 296,825 71,-261 141,-522 212,-783 181,311 365,790 829,886 1231,254 2218,1482 3092,3291 433,896 1012,1003 1838,905 -306,475 -858,633 -1842,233 322,501 766,846 1398,953 -818,287 -1386,-213 -2075,-276 -1155,-104 -2011,1542 -3776,1459l-45 -2c-1756,-82 -2609,-1561 -3760,-1457 -689,63 -1257,563 -2075,276 632,-107 1076,-452 1397,-953 -984,400 -1535,242 -1842,-233 827,98 1406,-9 1839,-905 874,-1809 1861,-3037 3091,-3291 464,-96 648,-575 830,-886 70,261 141,522 212,783 98,-275 282,-550 381,-825z"
         id="path35" /><g
         style="clip-path:url(#id0)"
         id="g37"
         clip-path="url(#id0)"><g
           id="g39"><path
             id="1"
             class="fil1"
             d="M6773 4723c-60,279 -165,542 -290,740 38,109 121,12 165,168l271 3c819,17 837,300 420,845l-417 516c-34,34 -72,71 -115,99 -9,7 -19,13 -29,18 -12,71 -158,137 -116,342 13,66 17,117 13,158 -10,139 -96,154 -115,193 -69,139 -167,149 -271,144 -85,-4 -174,-19 -255,19 180,45 371,77 574,90 15,0 30,1 45,2 3,0 5,0 7,0l45 2c302,15 578,-22 833,-92 654,-179 1173,-576 1658,-898 118,-78 234,-151 349,-216 42,-24 85,-46 128,-68 147,-74 294,-131 445,-162 118,-25 239,-34 363,-23 689,63 1257,563 2075,276 -632,-107 -1076,-452 -1398,-953 984,400 1536,242 1842,-233 -826,98 -1405,-9 -1838,-905 -58,-120 -116,-236 -174,-350 -68,-133 -137,-262 -207,-387 -118,-212 -238,-414 -360,-603l-11 38 -706 -931 27 -17c-125,-137 -253,-262 -383,-375 -128,-110 -257,-208 -390,-294 -282,-182 -577,-308 -888,-372 -464,-96 -648,-575 -829,-886l-144 531c70,23 41,231 40,231 -752,95 -169,149 -300,833 -58,299 147,341 -143,464 -6,15 -31,94 -47,104 -138,86 -185,487 -88,484 90,-3 102,274 138,347 142,287 157,664 94,1024 -1,5 -2,11 -3,16 -5,26 -10,52 -15,78zm2067 434c-110,58 -229,100 -355,124 -74,13 -150,20 -228,20 -163,0 -319,-31 -462,-88 -139,-55 -265,-134 -374,-233 -96,-87 -179,-189 -245,-302 -11,-18 -20,-36 -30,-54 -88,-172 -138,-366 -138,-572 0,-690 559,-1249 1249,-1249 690,0 1250,559 1250,1249 0,480 -271,896 -667,1105z" /><path
             class="fil3"
             d="M1471 2669c1735,-92 3470,-196 5205,0 1744,-227 3489,-116 5234,0 0,922 0,1844 0,2766 -1745,209 -3490,360 -5234,0 -1745,382 -3463,221 -5205,0 0,-922 0,-1844 0,-2766z"
             id="path42" /><path
             class="fil5"
             d="M6783 4726c-48,269 -132,526 -235,736 43,-8 85,-17 128,-27 536,111 1072,173 1608,200 205,11 410,16 615,17 173,1 346,-2 519,-7 752,-22 1504,-94 2256,-182 79,-9 157,-18 236,-28l0 -2766c-49,-4 -98,-7 -147,-10 -142,-9 -285,-19 -427,-28 -381,-24 -762,-46 -1144,-63l94 -383 -555 353 -20 12c-1001,-31 -2002,-13 -3004,115 -10,1 -21,2 -31,4 -12,-2 -23,-3 -34,-4 -94,71 -144,301 -133,431 5,55 21,92 50,92 90,-3 102,298 138,376 68,150 107,321 122,502 5,58 7,117 7,176 1,128 -9,258 -28,387 0,5 -1,10 -2,15 -4,28 -8,55 -13,82z"
             id="path44" /></g></g><path
         class="fil0"
         d="M6733 569c99,275 197,550 296,825 71,-261 141,-522 212,-783 181,311 365,790 829,886 1231,254 2218,1482 3092,3291 433,896 1012,1003 1838,905 -306,475 -858,633 -1842,233 322,501 766,846 1398,953 -818,287 -1386,-213 -2075,-276 -1155,-104 -2011,1542 -3776,1459l-45 -2c-1756,-82 -2609,-1561 -3760,-1457 -689,63 -1257,563 -2075,276 632,-107 1076,-452 1397,-953 -984,400 -1535,242 -1842,-233 827,98 1406,-9 1839,-905 874,-1809 1861,-3037 3091,-3291 464,-96 648,-575 830,-886 70,261 141,522 212,783 98,-275 282,-550 381,-825z"
         id="path46" /><circle
         class="fil6"
         cx="8257"
         cy="4052"
         r="1249"
         id="circle48" /><path
         class="fil2"
         d="M1451 336c-454,662 94,2475 898,4150l33 -48c607,-1180 1284,-2068 2045,-2560 -1044,-1139 -2198,-1853 -2976,-1542z"
         id="path50" /><circle
         class="fil5"
         cx="5219"
         cy="4158"
         r="1249"
         id="circle52" /><path
         class="fil4"
         d="M1987 1153c-319,466 54,1727 613,2908 442,-795 914,-1440 1433,-1889 -726,-769 -1507,-1235 -2046,-1019z"
         id="path54" /><circle
         class="fil6"
         cx="5113"
         cy="4052"
         r="1249"
         id="circle56" /><path
         class="fil7"
         d="M6666 7141c108,2 188,-80 256,-146l417 -516c417,-545 399,-828 -420,-845l-271 -3 -272 3c-819,17 -837,300 -420,845l417 516c68,66 185,148 293,146z"
         id="path58" /><circle
         class="fil7"
         cx="8257"
         cy="4052"
         r="387"
         id="circle60" /><circle
         class="fil7"
         cx="5113"
         cy="4052"
         r="387"
         id="circle62" /><polygon
         class="fil3"
         points="2939,3524 2724,2774 3010,2901 2938,2635 3190,2742 3063,2223 3645,2593 "
         id="polygon64" /><polygon
         class="fil5"
         points="10410,3486 10625,2736 10339,2863 10411,2597 10159,2704 10286,2185 9704,2555 "
         id="polygon66" /><path
         class="fil5"
         d="M7047 8999c-535,265 -75,675 -384,884 -418,282 -299,134 -366,570 151,212 310,468 360,779 63,-395 221,-702 398,-942 79,127 118,304 84,572 252,-389 384,-790 381,-1207 92,77 142,191 106,381 334,-280 486,-609 508,-974 118,66 144,217 64,466 397,-284 570,-620 487,-1017 177,7 289,135 339,382 201,-238 354,-514 453,-797 153,-434 181,-885 68,-1240 -115,65 -231,138 -349,216 -485,322 -1004,719 -1658,898 0,2 -185,174 -188,191 -33,221 -87,730 -303,838z"
         id="path68" /><path
         class="fil5"
         d="M2335 2240c0,-641 -52,-680 177,-1118 -195,-47 -376,-43 -536,21 -320,466 54,1727 613,2908 0,0 0,0 0,0 -58,-207 -118,-523 -119,-525 -99,-139 -135,-1059 -135,-1286z"
         id="path70" /><path
         class="fil5"
         d="M10535 3629c83,136 165,276 246,422 304,-643 554,-1310 666,-1859 -49,140 -97,276 -138,381 -144,374 -354,882 -774,1056z"
         id="path72" /><path
         class="fil1"
         d="M1355 5894c-415,51 -534,-32 -886,-81 313,370 834,473 1694,136 -163,-147 -606,-80 -808,-55z"
         id="path74" /><path
         class="fil1"
         d="M3172 6393c-353,-134 -776,86 -1085,303 -325,228 -808,238 -1207,201 789,247 1346,-233 2020,-294 52,-4 104,-6 155,-4 155,4 304,36 453,87 -49,-70 -109,-143 -129,-163 -65,-60 -135,-103 -207,-130z"
         id="path76" /><path
         class="fil8"
         d="M11650 5445c-4,38 164,247 217,260 111,29 120,73 303,88 116,10 122,38 311,38 103,0 329,-4 441,-31 28,-33 54,-69 78,-107 -549,65 -989,40 -1350,-248z"
         id="path78" /><path
         class="fil8"
         d="M11806 6595c-260,-168 -472,-395 -648,-669 -46,91 76,357 145,423 -30,102 368,240 482,245 7,0 14,0 21,1z"
         id="path80" /><path
         class="fil1"
         d="M7200 1776c-1,-233 76,-131 76,-327 0,-42 -18,-109 -66,-110 -169,-2 -70,8 -158,42 -16,7 -1,-3 -23,13l-296 -825c40,260 66,416 -8,679 -40,140 -6,238 19,266 6,0 12,1 18,2 102,12 154,47 315,134 2,1 118,126 123,126z"
         id="path82" /><g
         id="g84"><path
           class="fil9"
           d="M6413 7694c-50,-7 -85,-53 -78,-103 8,-49 54,-84 103,-77l-25 180zm1489 -704l131 125 -64 65 -67 60 -67 55 -68 50 -68 47 -69 42 -70 39 -69 35 -68 31 -69 28 -67 24 -67 22 -65 19 -64 16 -62 13 -61 12 -58 9 -57 8 -54 5 -51 5 -48 2 -46 2 -42 1 -38 0 -35 -1 -32 -2 -27 -1 -23 -2 -18 -2 -14 -1 -8 -1 -4 -1 25 -180 1 0 7 1 11 1 16 2 20 1 24 2 28 1 31 1 35 0 39 -1 41 -1 44 -3 47 -4 50 -5 51 -7 54 -8 55 -11 57 -12 59 -15 59 -17 61 -20 61 -22 62 -25 62 -28 62 -32 63 -35 62 -38 62 -42 61 -45 61 -50 59 -54 59 -58zm0 0c35,-37 92,-38 129,-3 36,34 37,92 2,128l-131 -125z"
           id="path86" /></g><g
         id="_298786904"><rect
           class="fil10"
           x="1608"
           y="8831"
           width="10164"
           height="4685"
           rx="439"
           ry="614"
           id="rect89" /><g
           id="layer1"
           inkscape:label="Capa 1"
           inkscape:groupmode="layer"><path
             class="fil11"
             d="M2646 10403l2928 0c55,0 99,42 99,93l0 1354c0,52 -44,93 -99,93l-2928 0c-54,0 -99,-41 -99,-93l0 -1354c0,-51 45,-93 99,-93z"
             id="path92" /><g
             id="g3819"><g
               id="g95"><path
                 id="path2993"
                 class="fil12"
                 d="M2660 11790l0 -1302 429 0c96,0 180,18 252,52 73,34 134,80 183,139 49,59 85,128 110,207 24,78 36,162 36,251 0,99 -14,189 -41,270 -27,79 -66,148 -117,205 -51,56 -112,100 -184,132 -71,31 -151,46 -239,46l-429 0 0 0zm779 -653c0,-62 -8,-119 -23,-172 -16,-53 -38,-98 -68,-136 -30,-37 -67,-67 -112,-88 -43,-20 -92,-31 -147,-31l-200 0 0 858 200 0c56,0 106,-11 149,-33 44,-22 81,-52 110,-90 30,-39 52,-85 68,-137 15,-53 23,-110 23,-171l0 0zm0 0l0 0 0 0z"
                 inkscape:connector-curvature="0" /></g><g
               id="g98"><path
                 id="path2995"
                 class="fil12"
                 d="M4236 11808c-69,0 -133,-13 -189,-38 -57,-27 -105,-63 -145,-108 -39,-46 -71,-98 -93,-158 -21,-60 -31,-123 -31,-189 0,-68 10,-132 31,-192 21,-61 52,-115 92,-160 40,-46 88,-83 144,-110 58,-27 122,-40 193,-40 71,0 134,13 190,40 56,27 104,63 142,108 40,46 70,98 90,158 21,60 32,122 32,187 0,16 -1,31 -2,46 0,14 -1,27 -3,36l-673 0c3,38 11,72 25,101 13,30 30,55 51,75 21,21 45,37 72,48 26,11 54,17 83,17 44,0 86,-12 124,-35 40,-25 67,-56 82,-96l191 59c-32,73 -84,134 -155,182 -69,46 -153,69 -251,69l0 0zm226 -579c-5,-72 -29,-130 -73,-172 -42,-44 -93,-66 -154,-66 -30,0 -58,6 -85,18 -25,11 -48,27 -68,48 -20,20 -37,46 -50,75 -12,29 -19,62 -22,97l452 0 0 0zm0 0l0 0 0 0z"
                 inkscape:connector-curvature="0" /></g><g
               id="g101"><path
                 id="path2997"
                 class="fil12"
                 d="M5036 11790l-321 -961 229 0 221 761 223 -761 209 0 -320 961 -241 0 0 0zm0 0l0 0 0 0z"
                 inkscape:connector-curvature="0" /></g></g><g
             id="g3824"><polygon
               id="path2994"
               class="fil12"
               points="6721,10547 6721,11848 6508,11848 6508,11293 6008,11293 6008,11848 5794,11848 5794,10547 6008,10547 6008,11073 6508,11073 6508,10547 "
               inkscape:connector-curvature="0" /><path
               id="path2996"
               class="fil12"
               d="M7176 11867c-84,0 -147,-32 -191,-96 -43,-63 -65,-157 -65,-282l0 -601 208 0 0 548c0,148 45,222 135,222 41,0 81,-14 118,-43 38,-29 69,-73 93,-132l0 -595 208 0 0 678c0,26 5,44 13,55 8,11 23,17 43,18l0 209c-21,5 -41,8 -57,9 -17,3 -31,4 -44,4 -37,0 -66,-10 -88,-29 -21,-21 -34,-49 -39,-85l-5 -78c-37,66 -84,115 -141,148 -56,33 -119,50 -188,50z"
               inkscape:connector-curvature="0" /><g
               id="g107"><path
                 id="path2998"
                 class="fil12"
                 d="M8648 11848l-208 0 0 -539c0,-77 -11,-133 -34,-168 -23,-36 -54,-54 -95,-54 -20,0 -41,5 -63,15 -22,10 -43,24 -62,42 -19,17 -36,38 -52,63 -15,24 -26,51 -34,80l0 561 -208 0 0 -960 188 0 0 177c30,-61 74,-108 131,-142 56,-35 121,-52 192,-52 51,0 92,11 124,33 32,22 57,51 75,86 17,36 29,76 36,121 7,46 10,91 10,138l0 599 0 0zm0 0l0 0 0 0z"
                 inkscape:connector-curvature="0" /></g><g
               id="g110"><path
                 id="path3000"
                 class="fil12"
                 d="M9312 11799c-27,14 -62,29 -104,44 -40,14 -82,22 -127,22 -29,0 -56,-5 -82,-13 -25,-9 -47,-22 -67,-40 -19,-20 -34,-44 -45,-74 -11,-30 -17,-67 -17,-110l0 -552 -106 0 0 -188 106 0 0 -312 208 0 0 312 172 0 0 188 -172 0 0 470c0,34 8,58 23,73 16,14 34,20 56,20 22,0 43,-4 64,-13 21,-8 37,-15 50,-22l41 195 0 0zm0 0l0 0 0 0z"
                 inkscape:connector-curvature="0" /></g><g
               id="g113"><path
                 id="path3002"
                 class="fil12"
                 d="M9797 11867c-66,0 -125,-13 -177,-39 -53,-27 -98,-63 -135,-108 -38,-45 -67,-98 -87,-158 -20,-60 -30,-123 -30,-189 0,-68 10,-132 30,-192 19,-61 48,-114 85,-159 37,-47 82,-84 135,-110 54,-27 114,-41 180,-41 67,0 126,14 177,41 53,26 98,62 134,108 37,45 65,97 84,157 19,60 29,123 29,187 0,16 0,31 -1,46 0,15 -1,27 -3,37l-629 0c3,38 10,71 23,101 12,29 28,54 48,75 20,21 42,36 67,47 25,11 51,17 77,17 42,0 81,-12 117,-35 37,-24 63,-56 76,-95l179 58c-30,74 -79,134 -145,182 -65,46 -143,70 -234,70l0 0zm211 -580c-5,-72 -28,-129 -68,-172 -40,-44 -88,-66 -145,-66 -28,0 -54,6 -79,18 -24,11 -45,27 -64,48 -18,21 -34,46 -46,75 -12,29 -18,62 -20,97l422 0 0 0zm0 0l0 0 0 0z"
                 inkscape:connector-curvature="0" /></g><g
               id="g116"><path
                 id="path3004"
                 class="fil12"
                 d="M10833 11100c-63,2 -119,16 -169,44 -50,27 -85,68 -107,123l0 581 -208 0 0 -960 191 0 0 205c28,-66 64,-119 109,-159 45,-41 93,-61 143,-61 11,0 19,1 24,2 7,0 12,0 17,2l0 223 0 0zm0 0l0 0 0 0z"
                 inkscape:connector-curvature="0" /></g></g></g><ellipse
           class="fil5"
           cx="1816"
           cy="10991"
           rx="671"
           ry="931"
           id="ellipse119" /><ellipse
           class="fil5"
           cx="11620"
           cy="10991"
           rx="671"
           ry="931"
           id="ellipse121" /></g><circle
         class="fil6"
         cx="4945"
         cy="3910"
         r="92"
         id="circle127" /><circle
         class="fil6"
         cx="8112"
         cy="3910"
         r="92"
         id="circle129" /></g></g></svg>